<?xml version="1.0" encoding="utf-8"?>
<!-- Generator: Adobe Illustrator 26.5.1, SVG Export Plug-In . SVG Version: 6.00 Build 0)  -->
<svg version="1.1" id="Layer_1" xmlns="http://www.w3.org/2000/svg" xmlns:xlink="http://www.w3.org/1999/xlink" x="0px" y="0px"
	 viewBox="0 0 100 100" style="enable-background:new 0 0 100 100;" xml:space="preserve">
<style type="text/css">
	.st0{fill:none;stroke:#FFFFFF;stroke-width:0.5;stroke-miterlimit:10;}
	.st1{fill:#FFFFFF;}
</style>
<polygon class="st0" points="13.8,75.8 13.8,68.6 58.2,24.2 65.3,31.3 20.9,75.8 "/>
<line class="st0" x1="52.4" y1="30" x2="59.5" y2="37.1"/>
<line class="st0" x1="49.6" y1="32.8" x2="56.6" y2="39.9"/>
<g>
	<path class="st1" d="M59.4,48.7l-1.3,9.9h-1.5l-0.7-6.5l-0.7,6.5h-1.5l-1.3-9.9h1.4l0.7,6.7l0.7-6.7h1.4l0.7,6.7l0.7-6.7H59.4z"/>
	<path class="st1" d="M60.5,48.7h3.9v1.4h-2.5v2.8h2v1.4h-2v2.9h2.5v1.4h-3.9V48.7z"/>
	<path class="st1" d="M69.6,54.3c0.2,0.3,0.3,0.7,0.3,1.2v0.8c0,0.7-0.2,1.3-0.6,1.7c-0.4,0.4-0.9,0.6-1.5,0.6h-2.3v-9.9h2.2
		c0.6,0,1.2,0.2,1.5,0.6c0.4,0.4,0.6,1,0.6,1.7v0.5c0,0.9-0.3,1.5-0.9,1.9C69.2,53.7,69.4,53.9,69.6,54.3z M66.8,50.1v2.7h0.6
		c0.3,0,0.6-0.1,0.7-0.3c0.2-0.2,0.2-0.4,0.2-0.8v-0.7c0-0.3-0.1-0.5-0.2-0.7c-0.1-0.2-0.4-0.2-0.6-0.2H66.8z M68.5,55.3
		c0-0.4-0.1-0.6-0.2-0.8c-0.2-0.2-0.4-0.3-0.7-0.3h-0.7v3h0.8c0.3,0,0.5-0.1,0.6-0.2c0.1-0.2,0.2-0.4,0.2-0.7V55.3z"/>
	<path class="st1" d="M71.1,48.7h2.1c0.6,0,1.2,0.2,1.6,0.6c0.4,0.4,0.6,1,0.6,1.7v5.2c0,0.7-0.2,1.3-0.6,1.7
		c-0.4,0.4-0.9,0.6-1.6,0.6h-2.1V48.7z M73.2,57.2c0.3,0,0.5-0.1,0.6-0.2c0.1-0.2,0.2-0.4,0.2-0.7v-5.2c0-0.3-0.1-0.5-0.2-0.7
		c-0.1-0.2-0.3-0.2-0.6-0.2h-0.7v7.1H73.2z"/>
	<path class="st1" d="M76.7,48.7h3.9v1.4h-2.5v2.8h2v1.4h-2v2.9h2.5v1.4h-3.9V48.7z"/>
	<path class="st1" d="M86.2,48.7l-1.5,9.9h-1.8l-1.5-9.9h1.4l1,7.8l1-7.8H86.2z"/>
	<path class="st1" d="M37.7,65.1h1.4v8.5h2.4V75h-3.8V65.1z"/>
	<path class="st1" d="M42.5,65.1h3.9v1.4h-2.5v2.8h2v1.4h-2v2.9h2.5V75h-3.9V65.1z"/>
	<path class="st1" d="M50.3,72.8h-1.5L48.6,75h-1.4l1.5-9.9h1.8L52,75h-1.4L50.3,72.8z M50.2,71.4l-0.6-4.1l-0.6,4.1H50.2z"/>
	<path class="st1" d="M56.1,75l-1-4.1h-0.7V75h-1.4v-9.9h2.1c0.6,0,1.2,0.2,1.6,0.6c0.4,0.4,0.6,1,0.6,1.7v1.1
		c0,0.5-0.1,0.9-0.2,1.2c-0.2,0.3-0.4,0.6-0.7,0.8l1.1,4.4H56.1z M54.4,69.5h0.7c0.3,0,0.5-0.1,0.6-0.2c0.1-0.2,0.2-0.4,0.2-0.7
		v-1.1c0-0.3-0.1-0.5-0.2-0.7c-0.1-0.2-0.3-0.2-0.6-0.2h-0.7V69.5z"/>
	<path class="st1" d="M58.6,65.1h1.5l1.7,6.6v-6.6h1.3V75h-1.4L60,68.7V75h-1.3V65.1z"/>
	<path class="st1" d="M64.7,65.1h3.9v1.4H66v2.8h2v1.4h-2v2.9h2.5V75h-3.9V65.1z"/>
	<path class="st1" d="M72.7,75l-1-4.1H71V75h-1.4v-9.9h2.1c0.6,0,1.2,0.2,1.6,0.6c0.4,0.4,0.6,1,0.6,1.7v1.1c0,0.5-0.1,0.9-0.2,1.2
		c-0.2,0.3-0.4,0.6-0.7,0.8l1.1,4.4H72.7z M71,69.5h0.7c0.3,0,0.5-0.1,0.6-0.2c0.1-0.2,0.2-0.4,0.2-0.7v-1.1c0-0.3-0.1-0.5-0.2-0.7
		c-0.1-0.2-0.3-0.2-0.6-0.2H71V69.5z"/>
</g>
</svg>
